<svg xmlns="http://www.w3.org/2000/svg" style="display:none">
  <symbol id="i-home" viewBox="0 0 24 24" fill="none" stroke="currentColor" stroke-width="2" stroke-linecap="round" stroke-linejoin="round">
    <path d="M3 11.5 12 4l9 7.5"/><path d="M5 10.5V20h14v-9.5"/><path d="M9 20v-6h6v6"/>
  </symbol>
  <symbol id="i-inbox" viewBox="0 0 24 24" fill="none" stroke="currentColor" stroke-width="2" stroke-linecap="round" stroke-linejoin="round">
    <path d="M3 7l3-3h12l3 3v10l-3 3H6l-3-3V7z"/><path d="M3 13h5l2 3h4l2-3h5"/>
  </symbol>
  <symbol id="i-calendar" viewBox="0 0 24 24" fill="none" stroke="currentColor" stroke-width="2" stroke-linecap="round" stroke-linejoin="round">
    <rect x="3" y="5" width="18" height="16" rx="2"/><path d="M16 3v4M8 3v4M3 11h18"/>
  </symbol>
  <symbol id="i-clock" viewBox="0 0 24 24" fill="none" stroke="currentColor" stroke-width="2" stroke-linecap="round" stroke-linejoin="round">
    <circle cx="12" cy="12" r="9"/><path d="M12 7v6l4 2"/>
  </symbol>
  <symbol id="i-plane" viewBox="0 0 24 24" fill="none" stroke="currentColor" stroke-width="2" stroke-linecap="round" stroke-linejoin="round">
    <path d="M10 13L3 21l3 .5 3-2.5 2 3 2-1-1.5-4 8.5-5.5a2 2 0 10-2.5-3L10 13z"/>
  </symbol>
  <symbol id="i-menu" viewBox="0 0 24 24" fill="none" stroke="currentColor" stroke-width="2" stroke-linecap="round" stroke-linejoin="round">
    <path d="M4 6h16M4 12h16M4 18h16"/>
  </symbol>
  <symbol id="i-bell" viewBox="0 0 24 24" fill="none" stroke="currentColor" stroke-width="2" stroke-linecap="round" stroke-linejoin="round">
    <path d="M6 8a6 6 0 1112 0c0 7 3 7 3 9H3c0-2 3-2 3-9"/><path d="M10 21h4"/>
  </symbol>
  <symbol id="i-chat" viewBox="0 0 24 24" fill="none" stroke="currentColor" stroke-width="2" stroke-linecap="round" stroke-linejoin="round">
    <path d="M21 15a4 4 0 01-4 4H8l-5 3V7a4 4 0 014-4h10a4 4 0 014 4v8z"/>
  </symbol>
</svg>
